<?xml version="1.0" ?><svg height="24px" version="1.1" viewBox="0 0 24 24" width="24px" xmlns="http://www.w3.org/2000/svg" xmlns:sketch="http://www.bohemiancoding.com/sketch/ns" xmlns:xlink="http://www.w3.org/1999/xlink"><title/><desc/><defs/><g fill="none" fill-rule="evenodd" id="miu" stroke="none" stroke-width="1"><g id="Artboard-1" transform="translate(-791.000000, -299.000000)"><g id="slice" transform="translate(215.000000, 119.000000)"/><path d="M804.001088,319.082629 L804.001088,307 L803.00265,307 L803.00265,319.081066 L799.967117,316.045532 L799.26001,316.752639 L803.50265,320.99528 L807.745291,316.752639 L807.038184,316.045532 L804.001088,319.082629 Z M799,314.01931 L796.125,314.01931 L795.4375,313.963901 C793.486375,313.64613 792,311.998527 792,310.013793 C792,308.438957 792.935687,307.076414 794.296938,306.422179 C794.146375,306.091724 794.0625,305.725887 794.0625,305.34069 C794.0625,303.865992 795.293813,302.670345 796.8125,302.670345 C797.621688,302.670345 798.34975,303.010146 798.853,303.550223 C799.916563,301.447327 802.143375,300 804.71875,300 C808.288937,300 811.190875,302.781832 811.248625,306.235923 C812.851875,306.785346 814,308.26939 814,310.013793 C814,311.998527 812.513625,313.64613 810.5625,313.963901 L809.875,314.01931 L808,314.013991 L808,313.019314 L809.877837,313.019314 L810.401752,312.976905 C811.897527,312.733295 813,311.479948 813,310.013793 C813,308.736522 812.162278,307.606116 810.924439,307.181916 L810.260497,306.954388 L810.248765,306.25264 C810.200183,303.346899 807.745524,301 804.71875,301 C802.579673,301 800.665599,302.182034 799.745361,304.001545 L799.098491,305.280551 L798.121389,304.231946 C797.791103,303.87749 797.320902,303.670345 796.8125,303.670345 C795.839626,303.670345 795.0625,304.424961 795.0625,305.34069 C795.0625,305.574129 795.112001,305.799205 795.206935,306.007565 L795.613136,306.899097 L794.730118,307.323487 C793.675676,307.830265 793,308.865772 793,310.013793 C793,311.479948 794.102473,312.733295 795.517835,312.967133 L796.125,313.01931 L799,313.019311 L799,314.01931 L799,314.01931 Z" fill="#fff" id="cloud-cloud_download-arrow-down-2-outline-stroke"/></g></g></svg>