<?xml version="1.0" ?><svg height="512" id="Layer_1" version="1.1" viewBox="0 0 512 512" width="512" xml:space="preserve" xmlns="http://www.w3.org/2000/svg" xmlns:cc="http://creativecommons.org/ns#" xmlns:dc="http://purl.org/dc/elements/1.1/" xmlns:inkscape="http://www.inkscape.org/namespaces/inkscape" xmlns:rdf="http://www.w3.org/1999/02/22-rdf-syntax-ns#" xmlns:sodipodi="http://sodipodi.sourceforge.net/DTD/sodipodi-0.dtd" xmlns:svg="http://www.w3.org/2000/svg"><defs id="defs12"/><g id="g3258"><rect height="512" id="rect2987" rx="64" ry="64" style="fill:#ee258f;fill-opacity:1;fill-rule:nonzero;stroke:none" width="512" x="0" y="0"/><path d="m 256.00001,55.997898 c -110.46216,0 -199.999875,89.551072 -199.999875,199.995442 0,110.46215 89.537715,200.00876 199.999875,200.00876 110.46215,0 199.99986,-89.54661 199.99986,-200.00876 0,-110.44882 -89.53771,-199.995442 -199.99986,-199.995442 z m 0,336.613132 c -75.45774,0 -136.6177,-61.16441 -136.6177,-136.60436 0,-75.46662 61.16442,-136.63102 136.6177,-136.63102 75.45328,0 136.61769,61.1644 136.61769,136.63102 0,75.44439 -61.16441,136.60436 -136.61769,136.60436 z" id="Orkut" style="fill:#ffffff;fill-opacity:1"/></g></svg>